<svg height="766" width="720" xmlns="http://www.w3.org/2000/svg">
<rect height="766" fill="#555" width="720"></rect>
<text fill="#7f7" font-family="Courier New" font-size="12" xml:space="preserve">
<tspan x="10" y="26">10 megabytes installed</tspan>
<tspan x="10" y="42"></tspan>
<tspan x="10" y="58">node_modules</tspan>
<tspan x="10" y="74">└─┬ grunt-contrib-watch@1.0.0 </tspan>
<tspan x="10" y="90">  ├── async@1.5.2 </tspan>
<tspan x="10" y="106">  ├─┬ gaze@1.1.2 </tspan>
<tspan x="10" y="122">  │ └─┬ globule@1.1.0 </tspan>
<tspan x="10" y="138">  │   ├─┬ glob@7.1.1 </tspan>
<tspan x="10" y="154">  │   │ ├── fs.realpath@1.0.0 </tspan>
<tspan x="10" y="170">  │   │ ├─┬ inflight@1.0.6 </tspan>
<tspan x="10" y="186">  │   │ │ └── wrappy@1.0.2 </tspan>
<tspan x="10" y="202">  │   │ ├── inherits@2.0.3 </tspan>
<tspan x="10" y="218">  │   │ ├── once@1.4.0 </tspan>
<tspan x="10" y="234">  │   │ └── path-is-absolute@1.0.1 </tspan>
<tspan x="10" y="250">  │   ├── lodash@4.16.6 </tspan>
<tspan x="10" y="266">  │   └─┬ minimatch@3.0.3 </tspan>
<tspan x="10" y="282">  │     └─┬ brace-expansion@1.1.7 </tspan>
<tspan x="10" y="298">  │       ├── balanced-match@0.4.2 </tspan>
<tspan x="10" y="314">  │       └── concat-map@0.0.1 </tspan>
<tspan x="10" y="330">  ├── lodash@3.10.1 </tspan>
<tspan x="10" y="346">  └─┬ tiny-lr@0.2.1 </tspan>
<tspan x="10" y="362">    ├─┬ body-parser@1.14.2 </tspan>
<tspan x="10" y="378">    │ ├── bytes@2.2.0 </tspan>
<tspan x="10" y="394">    │ ├── content-type@1.0.2 </tspan>
<tspan x="10" y="410">    │ ├── depd@1.1.0 </tspan>
<tspan x="10" y="426">    │ ├─┬ http-errors@1.3.1 </tspan>
<tspan x="10" y="442">    │ │ └── statuses@1.3.1 </tspan>
<tspan x="10" y="458">    │ ├── iconv-lite@0.4.13 </tspan>
<tspan x="10" y="474">    │ ├─┬ on-finished@2.3.0 </tspan>
<tspan x="10" y="490">    │ │ └── ee-first@1.1.1 </tspan>
<tspan x="10" y="506">    │ ├── qs@5.2.0 </tspan>
<tspan x="10" y="522">    │ ├─┬ raw-body@2.1.7 </tspan>
<tspan x="10" y="538">    │ │ ├── bytes@2.4.0 </tspan>
<tspan x="10" y="554">    │ │ └── unpipe@1.0.0 </tspan>
<tspan x="10" y="570">    │ └─┬ type-is@1.6.15 </tspan>
<tspan x="10" y="586">    │   ├── media-typer@0.3.0 </tspan>
<tspan x="10" y="602">    │   └─┬ mime-types@2.1.15 </tspan>
<tspan x="10" y="618">    │     └── mime-db@1.27.0 </tspan>
<tspan x="10" y="634">    ├─┬ debug@2.2.0 </tspan>
<tspan x="10" y="650">    │ └── ms@0.7.1 </tspan>
<tspan x="10" y="666">    ├─┬ faye-websocket@0.10.0 </tspan>
<tspan x="10" y="682">    │ └─┬ websocket-driver@0.6.5 </tspan>
<tspan x="10" y="698">    │   └── websocket-extensions@0.1.1 </tspan>
<tspan x="10" y="714">    ├── livereload-js@2.2.2 </tspan>
<tspan x="10" y="730">    ├── parseurl@1.3.1 </tspan>
<tspan x="10" y="746">    └── qs@5.1.0</tspan>
</text>
</svg>
